<?xml version="1.0" encoding="iso-8859-1"?>
<!-- Uploaded to: SVG Repo, www.svgrepo.com, Generator: SVG Repo Mixer Tools -->
<svg height="800px" width="800px" version="1.1" id="Layer_1" xmlns="http://www.w3.org/2000/svg" xmlns:xlink="http://www.w3.org/1999/xlink" 
	 viewBox="0 0 512.001 512.001" xml:space="preserve">
<path style="fill:#0055B8;" d="M268.655,257.577c3.526-8.293-0.376-17.961-8.667-21.486l-90.837-38.618
	c-8.292-3.526-17.96,0.375-21.485,8.667L45.764,445.842c-3.526,8.291,0.805,13.56,9.623,11.705l46.375-9.75
	c8.818-1.855,19.946,2.876,24.729,10.512l25.157,40.162c4.783,7.635,11.581,7.099,15.107-1.194L268.655,257.577z"/>
<path style="fill:#FF9E16;" d="M193.149,207.676L90.018,450.265l11.743-2.469c8.818-1.855,19.946,2.876,24.729,10.512l5.728,9.145
	l102.86-241.951L193.149,207.676z"/>
<path style="fill:#0055B8;" d="M243.345,257.577c-3.526-8.293,0.376-17.961,8.667-21.486l90.837-38.618
	c8.291-3.526,17.96,0.375,21.485,8.667l101.903,239.701c3.526,8.291-0.805,13.56-9.623,11.705l-46.375-9.75
	c-8.817-1.855-19.945,2.876-24.729,10.512l-25.157,40.162c-4.782,7.635-11.581,7.099-15.107-1.194L243.345,257.577z"/>
<path style="fill:#FF9E16;" d="M318.852,207.676l103.13,242.589l-11.743-2.469c-8.817-1.855-19.945,2.876-24.729,10.512
	l-5.728,9.145L276.922,225.501L318.852,207.676z"/>
<circle style="fill:#00A8E1;" cx="255.997" cy="191.062" r="182.926"/>
<path style="fill:#FFFFFF;" d="M256,336.259c-80.062,0-145.196-65.134-145.196-145.195c0-80.062,65.134-145.196,145.196-145.196
	s145.198,65.134,145.198,145.196C401.198,271.126,336.062,336.259,256,336.259z M256,62.14c-71.09,0-128.925,57.835-128.925,128.925
	c0,71.089,57.835,128.924,128.925,128.924s128.926-57.834,128.926-128.924C384.926,119.976,327.09,62.14,256,62.14z"/>
<circle style="fill:#0055B8;" cx="255.997" cy="191.062" r="94.831"/>
<path style="fill:#1E252B;" d="M256,88.098c-56.776,0-102.967,46.191-102.967,102.967S199.224,294.031,256,294.031
	c56.777,0,102.968-46.19,102.968-102.966S312.777,88.098,256,88.098z M256,277.76c-47.804,0-86.695-38.891-86.695-86.694
	c0-47.804,38.891-86.695,86.695-86.695s86.697,38.891,86.697,86.695C342.697,238.868,303.805,277.76,256,277.76z M473.725,442.659
	L413.001,299.82c21.462-30.889,34.064-68.375,34.064-108.754C447.065,85.712,361.354,0,256,0
	C150.648,0,64.936,85.712,64.936,191.065c0,40.38,12.602,77.864,34.064,108.753l-60.724,142.84
	c-2.907,6.837-2.403,13.4,1.384,18.007s10.13,6.37,17.399,4.844l46.376-9.75c5.48-1.156,13.184,2.12,16.159,6.869l25.157,40.162
	c3.7,5.904,8.918,9.211,14.458,9.211c0.366,0,0.734-0.015,1.103-0.043c5.946-0.471,11.021-4.66,13.929-11.498l51.34-120.762
	c9.909,1.592,20.067,2.431,30.419,2.431c10.352,0,20.51-0.839,30.419-2.431L337.76,500.46c2.907,6.837,7.984,11.028,13.93,11.498
	c0.369,0.028,0.737,0.043,1.103,0.043c5.538,0,10.758-3.306,14.457-9.211l25.156-40.162c2.976-4.749,10.677-8.026,16.161-6.87
	l46.374,9.75c7.271,1.526,13.613-0.236,17.4-4.844C476.127,456.058,476.632,449.495,473.725,442.659z M159.266,494.094
	c-0.107,0.253-0.212,0.475-0.311,0.67c-0.129-0.177-0.267-0.38-0.412-0.612l-25.157-40.162c-6.567-10.484-21.194-16.7-33.297-14.155
	l-46.376,9.75c-0.268,0.057-0.51,0.099-0.727,0.128c0.072-0.206,0.158-0.435,0.267-0.688l57.139-134.404
	c25.386,29.872,59.772,51.862,98.933,61.73L159.266,494.094z M256,365.858c-96.381,0-174.792-78.411-174.792-174.792
	C81.208,94.684,159.62,16.272,256,16.272s174.793,78.412,174.793,174.794C430.794,287.447,352.382,365.858,256,365.858z
	 M458.288,449.584l-46.374-9.749c-12.107-2.552-26.731,3.671-33.298,14.154l-25.157,40.162c-0.145,0.233-0.283,0.435-0.412,0.612
	c-0.1-0.195-0.204-0.418-0.311-0.67L302.68,376.351c39.159-9.869,73.546-31.859,98.932-61.729l57.139,134.404
	c0.108,0.252,0.195,0.481,0.266,0.688C458.799,449.683,458.558,449.642,458.288,449.584z"/>
</svg>